/* XPM */
static char * fast_xpm[] = {
"20 20 22 1",
" 	c None",
".	c #010000",
"+	c #A7603C",
"@	c #AF6B43",
"#	c #A05636",
"$	c #AC6741",
"%	c #B17046",
"&	c #000001",
"*	c #92452B",
"=	c #4C6081",
"-	c #566B8C",
";	c #445677",
">	c #526789",
",	c #5A7091",
"'	c #374562",
")	c #000000",
"!	c #4C603C",
"~	c #566B43",
"{	c #445636",
"]	c #526741",
"^	c #5A7046",
"/	c #37452B",
"       .            ",
"       ..           ",
"    ...+@.          ",
"  ..#+$$%$.         ",
" .##...$@.  &       ",
" .*.   ..   &&      ",
".*.    . &&&=-&     ",
"..     &&;=>>,>&    ",
"..    &;;&&&>-&     ",
" .    &'&   &&  )   ",
"  .  &'&    &   ))  ",
"     &&      )))!~) ",
"     &&    )){!]]^])",
"      &   ){{)))]~) ",
"       &  )/)   ))  ",
"         )/)    )   ",
"         ))         ",
"         ))         ",
"          )         ",
"           )        "};
