/* XPM */
static char * logo_xpm[] = {
"32 32 347 2",
"  	c None",
". 	c #FFFFFF",
"+ 	c #EBEAEA",
"@ 	c #F1F1F1",
"# 	c #C5B6B1",
"$ 	c #A2726D",
"% 	c #958482",
"& 	c #BC9082",
"* 	c #F25325",
"= 	c #B90D0A",
"- 	c #4F1010",
"; 	c #7A7474",
"> 	c #AF8989",
", 	c #EE3721",
"' 	c #F95505",
") 	c #DD3701",
"! 	c #6D0901",
"~ 	c #2C0A0A",
"{ 	c #7F7B7B",
"] 	c #AC8989",
"^ 	c #9F2929",
"/ 	c #E60A04",
"( 	c #FD2B01",
"_ 	c #F91D01",
": 	c #BF0201",
"< 	c #5A0000",
"[ 	c #2C1111",
"} 	c #B88682",
"| 	c #C72121",
"1 	c #D00B04",
"2 	c #FE0A01",
"3 	c #F20101",
"4 	c #D00101",
"5 	c #CF0101",
"6 	c #CB0E00",
"7 	c #5B0301",
"8 	c #270A0A",
"9 	c #777373",
"0 	c #BCA986",
"a 	c #F47024",
"b 	c #F93C05",
"c 	c #FD4801",
"d 	c #FE4501",
"e 	c #F10501",
"f 	c #CB0101",
"g 	c #DF0101",
"h 	c #F61C00",
"i 	c #B00A01",
"j 	c #490101",
"k 	c #260B0B",
"l 	c #7D7979",
"m 	c #E3E3E3",
"n 	c #D5D5D5",
"o 	c #BAB285",
"p 	c #DDAE26",
"q 	c #B56F06",
"r 	c #B76301",
"s 	c #E65401",
"t 	c #FE2A01",
"u 	c #F70401",
"v 	c #E80101",
"w 	c #F30F01",
"x 	c #F20900",
"y 	c #780101",
"z 	c #310101",
"A 	c #140101",
"B 	c #100C0C",
"C 	c #747474",
"D 	c #565656",
"E 	c #060101",
"F 	c #030101",
"G 	c #010202",
"H 	c #010102",
"I 	c #010101",
"J 	c #555555",
"K 	c #7E7144",
"L 	c #513F15",
"M 	c #2B1605",
"N 	c #380C01",
"O 	c #970C01",
"P 	c #F30101",
"Q 	c #FA0101",
"R 	c #FD1401",
"S 	c #FA4901",
"T 	c #D52000",
"U 	c #120101",
"V 	c #030303",
"W 	c #121212",
"X 	c #848484",
"Y 	c #585656",
"Z 	c #220101",
"` 	c #3B0801",
" .	c #2E1B15",
"..	c #1B2128",
"+.	c #19242D",
"@.	c #0C1216",
"#.	c #B8B8B8",
"$.	c #3B3B3B",
"%.	c #262626",
"&.	c #2F0F0F",
"*.	c #7C0101",
"=.	c #E00101",
"-.	c #DB0101",
";.	c #F42A01",
">.	c #F96E01",
",.	c #B81800",
"'.	c #020202",
").	c #131313",
"!.	c #313131",
"~.	c #616161",
"{.	c #575656",
"].	c #170101",
"^.	c #3F0C02",
"/.	c #4C2C22",
"(.	c #2A323B",
"_.	c #23313D",
":.	c #151D24",
"<.	c #926565",
"[.	c #B00707",
"}.	c #D30101",
"|.	c #9E0101",
"1.	c #D92101",
"2.	c #F95F01",
"3.	c #9C1200",
"4.	c #0E0E0E",
"5.	c #898989",
"6.	c #0C0201",
"7.	c #1A110E",
"8.	c #15191F",
"9.	c #1B252D",
"0.	c #1C242C",
"a.	c #A26B6B",
"b.	c #A80A0A",
"c.	c #830101",
"d.	c #5E0101",
"e.	c #C41101",
"f.	c #F94501",
"g.	c #910E00",
"h.	c #8B8B8B",
"i.	c #0F0801",
"j.	c #0A0901",
"k.	c #0C1014",
"l.	c #1D242C",
"m.	c #212930",
"n.	c #A7776B",
"o.	c #B20F0B",
"p.	c #750101",
"q.	c #670101",
"r.	c #D01A01",
"s.	c #F93801",
"t.	c #7E0900",
"u.	c #8C8C8C",
"v.	c #5D5956",
"w.	c #3C1E01",
"x.	c #3C3401",
"y.	c #080801",
"z.	c #090B0D",
"A.	c #1E2429",
"B.	c #21272D",
"C.	c #A98B6B",
"D.	c #D04B0B",
"E.	c #DB1201",
"F.	c #D71301",
"G.	c #F45601",
"H.	c #F94101",
"I.	c #6C0600",
"J.	c #5B5756",
"K.	c #341601",
"L.	c #695502",
"M.	c #3C3A0B",
"N.	c #0B0D0D",
"O.	c #21252A",
"P.	c #20252A",
"Q.	c #A9796B",
"R.	c #D2730B",
"S.	c #FEA901",
"T.	c #FEA201",
"U.	c #FEAF01",
"V.	c #F96101",
"W.	c #860A00",
"X.	c #090301",
"Y.	c #302103",
"Z.	c #433C19",
"`.	c #1A1C1C",
" +	c #202427",
".+	c #1D2024",
"++	c #9A6C6B",
"@+	c #CB420B",
"#+	c #FEE201",
"$+	c #FEE501",
"%+	c #FECF01",
"&+	c #F9A401",
"*+	c #A04C00",
"=+	c #060601",
"-+	c #090601",
";+	c #181612",
">+	c #191C1D",
",+	c #1A1D20",
"'+	c #141618",
")+	c #846B6B",
"!+	c #AB0B0B",
"~+	c #FEAB01",
"{+	c #FEB001",
"]+	c #F46D01",
"^+	c #E04F01",
"/+	c #8C2A00",
"(+	c #5B5B56",
"_+	c #262601",
":+	c #121201",
"<+	c #0D0E05",
"[+	c #111212",
"}+	c #141617",
"|+	c #090A0A",
"1+	c #736B6B",
"2+	c #780B0B",
"3+	c #FE7601",
"4+	c #F35F01",
"5+	c #B20601",
"6+	c #3F0000",
"7+	c #5D5D56",
"8+	c #404001",
"9+	c #434301",
"0+	c #30300E",
"a+	c #1B1C19",
"b+	c #0E0E0F",
"c+	c #030404",
"d+	c #706B6B",
"e+	c #710B0B",
"f+	c #FE6501",
"g+	c #E84501",
"h+	c #900101",
"i+	c #5C0101",
"j+	c #350000",
"k+	c #3F3F03",
"l+	c #404004",
"m+	c #42431D",
"n+	c #2A2B27",
"o+	c #0C0C0D",
"p+	c #856B6B",
"q+	c #9D0B0B",
"r+	c #C86101",
"s+	c #A13801",
"t+	c #860101",
"u+	c #710101",
"v+	c #390000",
"w+	c #5C5C59",
"x+	c #31311B",
"y+	c #1B1B10",
"z+	c #2B2C24",
"A+	c #353635",
"B+	c #1D1D1E",
"C+	c #967771",
"D+	c #3F1D11",
"E+	c #000000",
"F+	c #141414",
"G+	c #5D5D5C",
"H+	c #373837",
"I+	c #4B4E4E",
"J+	c #686B6B",
"K+	c #929698",
"L+	c #6F7275",
"M+	c #0E0F0F",
"N+	c #A1A09F",
"O+	c #3D3C3C",
"P+	c #161616",
"Q+	c #151515",
"R+	c #393939",
"S+	c #B1B1B1",
"T+	c #5C5D5D",
"U+	c #3A413D",
"V+	c #7A857E",
"W+	c #575F58",
"X+	c #4F554D",
"Y+	c #6C7566",
"Z+	c #141612",
"`+	c #A4A4A4",
" @	c #8D8D8D",
".@	c #C7C7C7",
"+@	c #ABABAB",
"@@	c #3F3F3E",
"#@	c #2E382E",
"$@	c #556650",
"%@	c #2C3424",
"&@	c #1B1D13",
"*@	c #32361D",
"=@	c #13160A",
"-@	c #B9B9B9",
";@	c #AAAAAA",
">@	c #060706",
",@	c #040404",
"'@	c #050605",
")@	c #181C13",
"!@	c #333F2C",
"~@	c #383E29",
"{@	c #0E100B",
"]@	c #0B0C06",
"^@	c #0E1007",
"/@	c #010201",
"(@	c #959595",
"_@	c #8F8F8F",
":@	c #1E2120",
"<@	c #2D3232",
"[@	c #111313",
"}@	c #141714",
"|@	c #3A3B37",
"1@	c #2C2C2D",
"2@	c #050606",
"3@	c #040403",
"4@	c #050505",
"5@	c #0A0A0A",
"6@	c #8E8E8E",
"7@	c #F8F8F8",
"8@	c #3E4546",
"9@	c #3C4343",
"0@	c #0A0B0B",
"a@	c #0A080A",
"b@	c #382436",
"c@	c #7B6C76",
"d@	c #323632",
"e@	c #050706",
"f@	c #1C1D1E",
"g@	c #6D6D6D",
"h@	c #9B9B9B",
"i@	c #494B4B",
"j@	c #707171",
"k@	c #262625",
"l@	c #18160E",
"m@	c #3D3A13",
"n@	c #333611",
"o@	c #090A04",
"p@	c #0D0F11",
"q@	c #919191",
"r@	c #202020",
"s@	c #3A3B3C",
"t@	c #1C1E1C",
"u@	c #16150B",
"v@	c #1D1B12",
"w@	c #070705",
"x@	c #727272",
"y@	c #1E252A",
"z@	c #39434D",
"A@	c #1E1F20",
"B@	c #6C6C6C",
"C@	c #909294",
"D@	c #19212A",
"E@	c #161718",
"F@	c #767676",
". . . . . . . . + @ . . . . . . . . . . . . . . . . . . . . . . ",
". . . . . . @ # $ % @ . . . . . . . . . . . . . . . . . . . . . ",
". . . . . . & * = - ; . . . . . . . . . . . . . . . . . . . . . ",
". . . . . > , ' ) ! ~ { . . . . . . . . . . . . . . . . . . . . ",
". . . . ] ^ / ( _ : < [ { . . . . . . . . . . . . . . . . . . . ",
". . @ } | 1 2 3 4 5 6 7 8 9 @ . . . . . . . . . . . . . . . . . ",
". @ 0 a b c d e f g h i j k l @ . . . m n n n n n n n m . . . . ",
". o p q r s t u v w x y z A B C . . . D E E F G H I I J . . . . ",
". K L M N O P Q R S T U I I V W X . . Y Z `  ...+.@.I J . . . . ",
". #.$.%.&.*.=.-.;.>.,.I '.).%.!.~.. . {.].^./.(._.:.I J . . . . ",
". . . . <.[.}.|.1.2.3.I 4.5.. . . . . D I 6.7.8.9.0.I J . . . . ",
". . . . a.b.c.d.e.f.g.I W h.. . . . . {.i.j.'.k.l.m.I J . . . . ",
". . . . n.o.p.q.r.s.t.I W u.. . . . . v.w.x.y.z.A.B.I J . . . . ",
". . . . C.D.E.F.G.H.I.I W u.. . . . . J.K.L.M.N.O.P.H J . . . . ",
". . . . Q.R.S.T.U.V.W.I W u.. . . . . D X.Y.Z.`. +.+'.J . . . . ",
". . . . ++@+#+$+%+&+*+I W u.. . . . . D =+-+;+>+,+'+'.J . . . . ",
". . . . )+!+~+{+]+^+/+I W u.. . . . . (+_+:+<+[+}+|+I J . . . . ",
". . . . 1+2+3+4+5+p.6+I W u.. . . . . 7+8+9+0+a+b+c+I J . . . . ",
". . . . d+e+f+g+h+i+j+I W u.. . . . . 7+k+l+m+n+o+I I J . . . . ",
". . . . p+q+r+s+t+u+v+I ).u.. . . . . w+x+y+z+A+B+V I J . . . . ",
". . . . C+D+I I I I E+I F+u.. . . . . G+H+I+J+K+L+M+I J . . . . ",
". . . . N+O+P+).W W ).Q+R+S+. . . . . T+U+V+W+X+Y+Z+I J . . . . ",
". . . . . `+ @u.u.u.u. @S+. .@+@+@+@+@@@#@$@%@&@*@=@I R++@+@+@-@",
". . . . . . . . . . . . . . ;@P+G >@,@'@)@!@~@{@]@^@/@I I I I (@",
". . . . . . . . . . . . . . . -@_@:@<@[@>@}@|@1@2@3@4@5@4@I 6@. ",
". . . . . . . . . . . . . . . . 7@(@8@9@0@a@b@c@d@e@f@P+g@n 7@. ",
". . . . . . . . . . . . . . . . . . h@i@j@k@l@m@n@o@p@C . . . . ",
". . . . . . . . . . . . . . . . . . . q@r@s@t@u@v@w@x@. . . . . ",
". . . . . . . . . . . . . . . . . . . . (@y@z@A@W B@. . . . . . ",
". . . . . . . . . . . . . . . . . . . . . C@D@E@F@@ . . . . . . ",
". . . . . . . . . . . . . . . . . . . . . 7@n n @ . . . . . . . ",
". . . . . . . . . . . . . . . . . . . . . . . . . . . . . . . . "};
