/* XPM */
static char * spindown_xpm[] = {
"30 30 209 2",
"  	c None",
". 	c #000000",
"+ 	c #010000",
"@ 	c #050000",
"# 	c #150000",
"$ 	c #140100",
"% 	c #0C0502",
"& 	c #060809",
"* 	c #040608",
"= 	c #030405",
"- 	c #000101",
"; 	c #090000",
"> 	c #3A0000",
", 	c #660B00",
"' 	c #5E2813",
") 	c #3A424C",
"! 	c #283746",
"~ 	c #334859",
"{ 	c #11181E",
"] 	c #020303",
"^ 	c #0D0000",
"/ 	c #260600",
"( 	c #532311",
"_ 	c #353941",
": 	c #182129",
"< 	c #212E39",
"[ 	c #13191E",
"} 	c #010101",
"| 	c #030000",
"1 	c #110805",
"2 	c #111418",
"3 	c #12181E",
"4 	c #202B33",
"5 	c #1D252D",
"6 	c #010202",
"7 	c #020000",
"8 	c #0A0600",
"9 	c #080700",
"0 	c #020100",
"a 	c #050608",
"b 	c #151B22",
"c 	c #212A32",
"d 	c #212A31",
"e 	c #020202",
"f 	c #110800",
"g 	c #392100",
"h 	c #232000",
"i 	c #020200",
"j 	c #020301",
"k 	c #15191E",
"l 	c #242B31",
"m 	c #21282E",
"n 	c #180700",
"o 	c #5C2900",
"p 	c #8B7700",
"q 	c #1F1F01",
"r 	c #020201",
"s 	c #0C0E10",
"t 	c #282F35",
"u 	c #1F2429",
"v 	c #1D0C00",
"w 	c #503600",
"x 	c #8C8318",
"y 	c #151714",
"z 	c #0D0F10",
"A 	c #2F343A",
"B 	c #1E2226",
"C 	c #020203",
"D 	c #030100",
"E 	c #160C00",
"F 	c #362910",
"G 	c #2D2F30",
"H 	c #101214",
"I 	c #272B2F",
"J 	c #1A1C1F",
"K 	c #030303",
"L 	c #090900",
"M 	c #040300",
"N 	c #0F0B08",
"O 	c #1D2021",
"P 	c #151819",
"Q 	c #1C1F22",
"R 	c #111314",
"S 	c #0E0E00",
"T 	c #252500",
"U 	c #0B0B00",
"V 	c #090901",
"W 	c #0D0D0C",
"X 	c #161719",
"Y 	c #161818",
"Z 	c #080909",
"` 	c #111100",
" .	c #484800",
"..	c #3C3C00",
"+.	c #252504",
"@.	c #171813",
"#.	c #111213",
"$.	c #0E0F0F",
"%.	c #4F4F00",
"&.	c #5A5A00",
"*.	c #59590D",
"=.	c #404235",
"-.	c #151516",
";.	c #080808",
">.	c #111101",
",.	c #434309",
"'.	c #323316",
").	c #393A35",
"!.	c #1B1C1C",
"~.	c #060606",
"{.	c #10100D",
"].	c #32322A",
"^.	c #141413",
"/.	c #20201F",
"(.	c #363737",
"_.	c #414142",
":.	c #19191A",
"<.	c #111111",
"[.	c #424443",
"}.	c #545757",
"|.	c #646867",
"1.	c #979C9C",
"2.	c #B1B6B9",
"3.	c #65686B",
"4.	c #101211",
"5.	c #454C48",
"6.	c #848E89",
"7.	c #6E7771",
"8.	c #474D46",
"9.	c #6A716A",
"0.	c #7A8577",
"a.	c #0E110E",
"b.	c #3B4940",
"c.	c #677965",
"d.	c #333E2E",
"e.	c #191C12",
"f.	c #303121",
"g.	c #4C532C",
"h.	c #080904",
"i.	c #090A06",
"j.	c #293120",
"k.	c #44553B",
"l.	c #444E31",
"m.	c #090B06",
"n.	c #0B0B06",
"o.	c #16180A",
"p.	c #15180B",
"q.	c #0C0E0D",
"r.	c #0B0D0C",
"s.	c #060707",
"t.	c #060706",
"u.	c #0E110C",
"v.	c #1B231B",
"w.	c #4E553A",
"x.	c #23271F",
"y.	c #050505",
"z.	c #040503",
"A.	c #090A05",
"B.	c #191A1A",
"C.	c #464D4D",
"D.	c #3A4141",
"E.	c #050606",
"F.	c #08090A",
"G.	c #262427",
"H.	c #5E5961",
"I.	c #141616",
"J.	c #0F1010",
"K.	c #0C0C0C",
"L.	c #232727",
"M.	c #5A6366",
"N.	c #3A403F",
"O.	c #201320",
"P.	c #683F62",
"Q.	c #AAAFA3",
"R.	c #040807",
"S.	c #070807",
"T.	c #212223",
"U.	c #202020",
"V.	c #0A0A0A",
"W.	c #252727",
"X.	c #5A5C5C",
"Y.	c #8A8A8B",
"Z.	c #242424",
"`.	c #11100E",
" +	c #2F2914",
".+	c #5A5A18",
"++	c #262B0E",
"@+	c #070A0C",
"#+	c #151515",
"$+	c #1D1D1D",
"%+	c #4D4D4D",
"&+	c #0B0B0A",
"*+	c #0F0F05",
"=+	c #241F0B",
"-+	c #212117",
";+	c #030302",
">+	c #010203",
",+	c #242627",
"'+	c #555C61",
")+	c #0E0E0F",
"!+	c #161515",
"~+	c #121212",
"{+	c #0A1219",
"]+	c #344B61",
"^+	c #363A3D",
"/+	c #0B0B0B",
"(+	c #0A0F17",
"_+	c #0E0F11",
":+	c #090909",
"                                                            ",
"                    . + . . . . . . . .                     ",
"                    @ # $ % & * * = - .                     ",
"                    ; > , ' ) ! ~ { ] .                     ",
"                    + ^ / ( _ : < [ } .                     ",
"                    . . | 1 2 3 4 5 6 .                     ",
"                    7 8 9 0 a b c d e .                     ",
"                    f g h i j k l m 6 .                     ",
"                    n o p q r s t u e .                     ",
"                    @ v w x y z A B C .                     ",
"                    . D E F G H I J K .                     ",
"                    i L M N O P Q R K .                     ",
"                    S T U V W X Y Z } .                     ",
"                    `  ...+.@.#.$.K . .                     ",
"                    ` %.&.*.=.-.;.} . .                     ",
"                    >.,.+.'.).!.~.. . .                     ",
"                    {.].^./.(._.:.. . .                     ",
"                    <.[.}.|.1.2.3.. . .                     ",
"                    4.5.6.7.8.9.0.. . .                     ",
"                    a.b.c.d.e.f.g.h.. .                     ",
"        . . . e . . i.j.k.l.m.n.o.p.j . . . . . .           ",
"          . e q.r.s.t.u.v.w.x.y.z.A.r K K . . .             ",
"              B.C.D.E.K F.G.H.I.. K E.J.K.K .               ",
"                L.M.N.K y.O.P.Q.R.S.T.U.V.                  ",
"                  W.X.Y.Z.`. +.+++z.@+F.                    ",
"                    #+$+%+&+*+=+-+;+>+                      ",
"                      y.,+'+)+!+~+K                         ",
"                        {+]+^+U./+                          ",
"                          (+_+:+                            ",
"                                                            "};
