/* XPM */
static char * spindown_xpm[] = {
"30 30 142 2",
"  	c None",
". 	c #000000",
"+ 	c #D30000",
"@ 	c #FF0A00",
"# 	c #FF9C00",
"$ 	c #FFFF00",
"% 	c #5E0000",
"& 	c #FF1200",
"* 	c #FF6300",
"= 	c #8CC1F1",
"- 	c #8DC2F2",
"; 	c #8FC3F2",
"> 	c #FF4E00",
", 	c #93C6F2",
"' 	c #95C6F3",
") 	c #96C7F3",
"! 	c #98C8F3",
"~ 	c #941600",
"{ 	c #9DCBF3",
"] 	c #9ECBF4",
"^ 	c #A0CCF4",
"/ 	c #A1CDF4",
"( 	c #A6D0F4",
"_ 	c #A7D0F5",
": 	c #A9D1F5",
"< 	c #ABD2F5",
"[ 	c #FF9200",
"} 	c #AFD4F6",
"| 	c #B1D5F6",
"1 	c #B2D6F6",
"2 	c #B4D7F6",
"3 	c #FF4100",
"4 	c #B9D9F7",
"5 	c #BADAF7",
"6 	c #BCDBF7",
"7 	c #BDDCF7",
"8 	c #B95900",
"9 	c #C2DEF8",
"0 	c #C3DFF8",
"a 	c #C5E0F8",
"b 	c #C7E1F8",
"c 	c #530000",
"d 	c #9B4B00",
"e 	c #CBE3F9",
"f 	c #CDE4F9",
"g 	c #CEE5F9",
"h 	c #D0E6F9",
"i 	c #FFD600",
"j 	c #6C1600",
"k 	c #D5E8FA",
"l 	c #D6E9FA",
"m 	c #D8EAFA",
"n 	c #D9EBFA",
"o 	c #DEEDFB",
"p 	c #DFEEFB",
"q 	c #E1EFFB",
"r 	c #E3F0FB",
"s 	c #E7F2FC",
"t 	c #E9F3FC",
"u 	c #EAF4FC",
"v 	c #ECF5FC",
"w 	c #F1F7FD",
"x 	c #F2F8FD",
"y 	c #F4F9FD",
"z 	c #F5FAFD",
"A 	c #FFFF07",
"B 	c #FFFF23",
"C 	c #FAFCFE",
"D 	c #FBFDFE",
"E 	c #FDFEFE",
"F 	c #FFFFFF",
"G 	c #FFFFAC",
"H 	c #FEFEFE",
"I 	c #FDFDFE",
"J 	c #FCFDFE",
"K 	c #F7FCFD",
"L 	c #F2F9FC",
"M 	c #F8FEFB",
"N 	c #F2FAFB",
"O 	c #EFF5FB",
"P 	c #E9EFFA",
"Q 	c #E6EDF9",
"R 	c #E6EEF8",
"S 	c #E9F9ED",
"T 	c #DFEFEC",
"U 	c #DEEFEB",
"V 	c #E3F6EB",
"W 	c #DDF0EB",
"X 	c #D5EAE9",
"Y 	c #CFE4E8",
"Z 	c #9BE2E5",
"` 	c #B0EFDC",
" .	c #D7EDCB",
"..	c #A0E1A1",
"+.	c #D0E779",
"@.	c #90855B",
"#.	c #D0E75B",
"$.	c #CBE25A",
"%.	c #C5DD66",
"&.	c #D5EB7F",
"*.	c #90C588",
"=.	c #D1E688",
"-.	c #63959D",
";.	c #D3EA8C",
">.	c #797F7C",
",.	c #D0E775",
"'.	c #CBE29F",
").	c #CFE7D8",
"!.	c #C7DFDE",
"~.	c #C5DBDC",
"{.	c #CFE4DD",
"].	c #B9E482",
"^.	c #4D6F80",
"/.	c #BCCC7E",
"(.	c #CDE3B0",
"_.	c #CCE1DF",
":.	c #D3EADE",
"<.	c #B8A6DC",
"[.	c #CDE6DC",
"}.	c #DAEDEE",
"|.	c #EFF8FD",
"1.	c #C9DFDD",
"2.	c #C1D6DC",
"3.	c #C7DCB2",
"4.	c #D5EADC",
"5.	c #57A0DE",
"6.	c #A77CDD",
"7.	c #D1E9DD",
"8.	c #DCEBED",
"9.	c #F1F7FC",
"0.	c #C3D8E0",
"a.	c #C4DADD",
"b.	c #DEEEED",
"c.	c #E3FDFC",
"d.	c #E3A0FE",
"e.	c #FF57FF",
"f.	c #46FFFF",
"g.	c #55C3F3",
"h.	c #385000",
"i.	c #4694E2",
"j.	c #AF0000",
"k.	c #FF2F00",
"                                                            ",
"                    . . . . . . . . . .                     ",
"                    . + @ # $ $ $ $ $ .                     ",
"                    . % & * = = - ; $ .                     ",
"                    . . . > , ' ) ! $ .                     ",
"                    . . . ~ { ] ^ / $ .                     ",
"                    . * $ $ ( _ : < $ .                     ",
"                    . [ $ $ } | 1 2 $ .                     ",
"                    . 3 $ $ 4 5 6 7 $ .                     ",
"                    . . 8 $ 9 0 a b $ .                     ",
"                    . c . d e f g h $ .                     ",
"                    . $ i j k l m n $ .                     ",
"                    . $ $ $ o p q r $ .                     ",
"                    . $ $ $ s t u v $ .                     ",
"                    . $ $ $ w x y z $ .                     ",
"                    . $ A B C D E F G .                     ",
"                    . F F H H E I J E .                     ",
"                    . K L M N O P Q R .                     ",
"                    . S T U V W X Y Z .                     ",
"                    . `  ...+.@.#.$.%..                     ",
"        . . . . . . . &.*.=.-.;.>.,.'.. . . . . .           ",
"          . . ).!.~.{.].^./.(._.:.<.[.}.|.H . .             ",
"              . 1.2.3.4.5.6.7.8.9.H F F F . .               ",
"                . 0.a.b.c.d.e.F f.F F F .                   ",
"                  . F F F g.h.$ $ F i..                     ",
"                    . . F F j.k.F F .                       ",
"                      . . F F F F .                         ",
"                        . i.F F .                           ",
"                          . . .                             ",
"                                                            "};
