/* XPM */
static char * spinup_xpm[] = {
"30 30 204 2",
"  	c None",
". 	c #AA6E58",
"+ 	c #F3954F",
"@ 	c #E71818",
"# 	c #790F0F",
"$ 	c #412626",
"% 	c #F36D4F",
"& 	c #F45213",
"* 	c #FA1002",
"= 	c #8B0000",
"- 	c #2B0404",
"; 	c #2D1F1F",
"> 	c #CA4F4F",
", 	c #E91313",
"' 	c #FA5902",
") 	c #FE7600",
"! 	c #D82800",
"~ 	c #530000",
"{ 	c #250303",
"] 	c #C04F4F",
"^ 	c #921313",
"/ 	c #E10202",
"( 	c #FE1C00",
"_ 	c #FE2800",
": 	c #FC0000",
"< 	c #B50000",
"[ 	c #2C1F1F",
"} 	c #E24F4F",
"| 	c #AB1313",
"1 	c #CD0202",
"2 	c #FE0000",
"3 	c #DE0000",
"4 	c #C60000",
"5 	c #D20000",
"6 	c #C00B00",
"7 	c #230303",
"8 	c #241F1F",
"9 	c #F3934F",
"0 	c #F41713",
"a 	c #FA0202",
"b 	c #FE3400",
"c 	c #FE4D00",
"d 	c #FF0700",
"e 	c #D40000",
"f 	c #B90000",
"g 	c #E90000",
"h 	c #F82F00",
"i 	c #C01300",
"j 	c #4C0000",
"k 	c #1E0303",
"l 	c #F3DB4F",
"m 	c #F4B013",
"n 	c #FAA102",
"o 	c #FEA300",
"p 	c #FE7D00",
"q 	c #FF5C00",
"r 	c #FF0C00",
"s 	c #DC0000",
"t 	c #F80000",
"u 	c #F90700",
"v 	c #770000",
"w 	c #3D0000",
"x 	c #160303",
"y 	c #231F1F",
"z 	c #ECDC58",
"A 	c #DFB01A",
"B 	c #965105",
"C 	c #521C01",
"D 	c #822800",
"E 	c #DF2600",
"F 	c #F60000",
"G 	c #FF0000",
"H 	c #F93000",
"I 	c #E90700",
"J 	c #440000",
"K 	c #000000",
"L 	c #040404",
"M 	c #222222",
"N 	c #524646",
"O 	c #1E1E1E",
"P 	c #0A0A0A",
"Q 	c #030303",
"R 	c #280000",
"S 	c #8C0000",
"T 	c #EC0000",
"U 	c #FF3F00",
"V 	c #F76D00",
"W 	c #C21D00",
"X 	c #020202",
"Y 	c #0F0F0F",
"Z 	c #3C3C3C",
"` 	c #494949",
" .	c #363636",
"..	c #242424",
"+.	c #3B0A0A",
"@.	c #8A0000",
"#.	c #E10000",
"$.	c #CD0000",
"%.	c #E60000",
"&.	c #FF5A00",
"*.	c #F77E00",
"=.	c #A70000",
"-.	c #323232",
";.	c #3A3A3A",
">.	c #525252",
",.	c #842323",
"'.	c #BA0202",
").	c #EB0000",
"!.	c #A00000",
"~.	c #BC0000",
"{.	c #FF4A00",
"].	c #F77000",
"^.	c #A93131",
"/.	c #B10202",
"(.	c #A80000",
"_.	c #590000",
":.	c #8D0000",
"<.	c #FF2600",
"[.	c #F75F00",
"}.	c #810000",
"|.	c #313131",
"1.	c #B63333",
"2.	c #940303",
"3.	c #5F0000",
"4.	c #270000",
"5.	c #830000",
"6.	c #FF2000",
"7.	c #F74500",
"8.	c #740000",
"9.	c #333333",
"0.	c #BE6933",
"a.	c #CF0303",
"b.	c #9E0000",
"c.	c #6D0000",
"d.	c #C30000",
"e.	c #F73000",
"f.	c #BE8133",
"g.	c #D76303",
"h.	c #FE2100",
"i.	c #FF5600",
"j.	c #FF8A00",
"k.	c #F72400",
"l.	c #BE4633",
"m.	c #D78003",
"n.	c #FEC900",
"o.	c #FFB900",
"p.	c #FFC700",
"q.	c #FFB100",
"r.	c #F74200",
"s.	c #A33333",
"t.	c #D75303",
"u.	c #FEE900",
"v.	c #FFED00",
"w.	c #FFE600",
"x.	c #FFCE00",
"y.	c #F79E00",
"z.	c #8F3F00",
"A.	c #783333",
"B.	c #CD0303",
"C.	c #FEB700",
"D.	c #FFDA00",
"E.	c #FFB400",
"F.	c #FF8700",
"G.	c #8F3600",
"H.	c #4F3333",
"I.	c #8F0303",
"J.	c #FE8300",
"K.	c #FFA400",
"L.	c #FF1A00",
"M.	c #C00000",
"N.	c #A30000",
"O.	c #580000",
"P.	c #383333",
"Q.	c #770303",
"R.	c #FE6400",
"S.	c #FF6C00",
"T.	c #4D0000",
"U.	c #370000",
"V.	c #150000",
"W.	c #403333",
"X.	c #7F0303",
"Y.	c #FE6500",
"Z.	c #FE6600",
"`.	c #BD0000",
" +	c #6F0000",
".+	c #690000",
"++	c #3B0000",
"@+	c #763333",
"#+	c #AF0303",
"$+	c #C66400",
"%+	c #965200",
"&+	c #8F0000",
"*+	c #700000",
"=+	c #2C0000",
"-+	c #343434",
";+	c #9C4839",
">+	c #331405",
",+	c #655D5A",
"'+	c #181818",
")+	c #060606",
"!+	c #3F3F3F",
"~+	c #5A5A5A",
"{+	c #353535",
"]+	c #404040",
"                                                            ",
"                              .                             ",
"                          + @ # $                           ",
"                        % & * = - ;                         ",
"                      > , ' ) ! ~ { ;                       ",
"                    ] ^ / ( _ : < ~ { [                     ",
"                  } | 1 2 2 3 4 5 6 ~ 7 8                   ",
"                9 0 a b c d e f g h i j k ;                 ",
"              l m n o p q r s 5 t u 4 v w x y               ",
"            z A B C D E d 2 F G H I J K K K L M             ",
"            N O P Q R S T t G U V W K K K X L Y Z           ",
"              `  ...+.@.#.$.%.&.*.=.K K P ..-.;.>.          ",
"                    ,.'.).!.~.{.].S K X ..                  ",
"                    ^./.(._.:.<.[.}.K X |.                  ",
"                    1.2.3.4.5.6.7.8.K Q 9.                  ",
"                    0.a.b.c.d.{.e._.K Q 9.                  ",
"                    f.g.h.G i.j.k.j K Q 9.                  ",
"                    l.m.n.o.p.q.r.v K Q 9.                  ",
"                    s.t.u.v.w.x.y.z.K Q 9.                  ",
"                    A.B.C.D.E.F.].G.K Q 9.                  ",
"                    H.I.J.K.L.M.N.O.K Q 9.                  ",
"                    P.Q.R.S.~.T.U.V.K Q 9.                  ",
"                    W.X.Y.Z.`. +.+++K Q 9.                  ",
"                    @+#+$+%+&+v *+=+K Q -+                  ",
"                    ;+>+K K K K K K K Q -+                  ",
"                    ,+'+)+Q Q Q Q Q Q P !+                  ",
"                      ~+;.-+9.9.9.-+{+]+                    ",
"                                                            ",
"                                                            ",
"                                                            "};
