/* XPM */
static char * spinup1_xpm[] = {
"30 30 125 2",
"  	c None",
". 	c #000000",
"+ 	c #FF7C00",
"@ 	c #9F0000",
"# 	c #530000",
"$ 	c #3B0000",
"% 	c #390000",
"& 	c #FFFC00",
"* 	c #FFD600",
"= 	c #FF5600",
"- 	c #E90000",
"; 	c #C30000",
"> 	c #C10000",
", 	c #D50000",
"' 	c #FFFA00",
") 	c #FFF400",
"! 	c #FFF000",
"~ 	c #FFCA00",
"{ 	c #FF9000",
"] 	c #FF7A00",
"^ 	c #FF8400",
"/ 	c #FFA400",
"( 	c #FFD800",
"_ 	c #FFF800",
": 	c #FFD400",
"< 	c #FFB600",
"[ 	c #FFC200",
"} 	c #FFE800",
"| 	c #FFEA00",
"1 	c #FFB000",
"2 	c #FB0000",
"3 	c #FFCC00",
"4 	c #FF4000",
"5 	c #FF6000",
"6 	c #FF9800",
"7 	c #FFC000",
"8 	c #FF3C00",
"9 	c #810000",
"0 	c #FFF200",
"a 	c #FF7400",
"b 	c #BB0000",
"c 	c #FF1A00",
"d 	c #FF9A00",
"e 	c #FF8E00",
"f 	c #4D0000",
"g 	c #FFBA00",
"h 	c #FF2E00",
"i 	c #910000",
"j 	c #570000",
"k 	c #870000",
"l 	c #FF0A00",
"m 	c #FF9600",
"n 	c #ED0000",
"o 	c #FF4A00",
"p 	c #8F0000",
"q 	c #AB0000",
"r 	c #FFC800",
"s 	c #FF5A00",
"t 	c #FFF600",
"u 	c #FFDE00",
"v 	c #FF6800",
"w 	c #430000",
"x 	c #B70000",
"y 	c #FF8000",
"z 	c #FFE400",
"A 	c #FF6600",
"B 	c #8D0000",
"C 	c #370000",
"D 	c #AF0000",
"E 	c #FFDA00",
"F 	c #FF5C00",
"G 	c #330000",
"H 	c #A70000",
"I 	c #FF7200",
"J 	c #FFE000",
"K 	c #FF4600",
"L 	c #7F0000",
"M 	c #FF6A00",
"N 	c #FFBC00",
"O 	c #FF3A00",
"P 	c #830000",
"Q 	c #D30000",
"R 	c #FF8600",
"S 	c #FFEE00",
"T 	c #FFB800",
"U 	c #A10000",
"V 	c #FF3600",
"W 	c #FFEC00",
"X 	c #FF6200",
"Y 	c #D70000",
"Z 	c #FF7600",
"` 	c #FF6E00",
" .	c #F30000",
"..	c #FFC400",
"+.	c #CF0000",
"@.	c #DD0000",
"#.	c #FF7E00",
"$.	c #FFCE00",
"%.	c #FF5000",
"&.	c #FF3400",
"*.	c #FF5E00",
"=.	c #8B0000",
"-.	c #450000",
";.	c #C50000",
">.	c #FF8200",
",.	c #FF6400",
"'.	c #890000",
").	c #2B0000",
"!.	c #970000",
"~.	c #950000",
"{.	c #4B0000",
"].	c #CB0000",
"^.	c #E70000",
"/.	c #FF7800",
"(.	c #FF4C00",
"_.	c #FF6C00",
":.	c #930000",
"<.	c #FFB200",
"[.	c #FF8C00",
"}.	c #FF8A00",
"|.	c #FFDC00",
"1.	c #FFE200",
"2.	c #1B0000",
"3.	c #FF7000",
"4.	c #150000",
"                                                            ",
"                          .                                 ",
"                        . . .                               ",
"                      + @ # $ %                             ",
"                    & * = - ; > ,                           ",
"                  ' ) ! ~ { ] ^ / ( &                       ",
"                & ) _ ! : < [ ( } | 1 2                     ",
"              & & _ ! 3 ] 4 5 6 3 7 8 9 .                   ",
"          . . & & 0 : a - @ b c d e - f . .                 ",
"        . . . & & ! g h i j k l m { n j . . . .             ",
"      . . . . & 0 ) 3 o p f q = r ~ s @ . . . . .           ",
"                  t u v i w x y z !                         ",
"                  ' u A B C D + z t                         ",
"                  & E F k G H I J 0                         ",
"                  & r K L G H M E &                         ",
"                  & N O P f Q R u S                         ",
"                  & T K U p V N W &                         ",
"                  & 7 X Y Y Z u ) &                         ",
"                  & r `  .2 { } ) &                         ",
"                  & ..s +.@.#.J ) &                         ",
"                  & $.%.@ i &.T W &                         ",
"                  ' E *.=.-.;.>.z '                         ",
"                  ( * ,.'.).!.` E (                         ",
"                  *.< ,.~.{.].R N *.                        ",
"                  ^.R /.@.;.(.< R @.                        ",
"                  b _./ v ` T T O :.                        ",
"                  p V <.r $.E [.+.-.                        ",
"                  -.+.}.|.1.|.` !.2.                        ",
"                  2.!.3.1.S J _.B 4.                        ",
"                                                            "};
